<svg xmlns="http://www.w3.org/2000/svg" version="1.1" xmlns:xlink="http://www.w3.org/1999/xlink" xmlns:svgjs="http://svgjs.dev/svgjs" width="1440" height="560" preserveAspectRatio="none" viewBox="0 0 1440 560">
    <g mask="url(&quot;#SvgjsMask1016&quot;)" fill="none">
        <path d="M622.488,314.125C647.698,315.096,672.177,304.318,685.972,283.195C701.192,259.891,706.991,229.893,693.341,205.636C679.475,180.997,650.676,168.19,622.488,170.384C597.453,172.333,579.937,193.016,568.472,215.357C558.151,235.467,556.101,258.777,566.947,278.609C578.248,299.274,598.952,313.218,622.488,314.125" fill="rgba(245, 53, 255, 0.5)" class="triangle-float1"></path>
        <path d="M979.395,305.519C1028.176,303.544,1062.698,261.298,1083.683,217.217C1101.604,179.572,1097.923,136.715,1076.896,100.713C1056.072,65.059,1020.641,40.571,979.395,38.659C934.474,36.577,889.103,53.003,864.873,90.886C838.785,131.673,836.587,183.58,859.379,226.297C883.565,271.625,928.06,307.597,979.395,305.519" fill="rgba(245, 53, 255, 0.5)" class="triangle-float3"></path>
        <path d="M1272.871,608.663C1298.332,610.638,1323.807,597.663,1336.071,575.263C1347.939,553.586,1341.692,527.568,1328.822,506.471C1316.561,486.374,1296.412,471.892,1272.871,471.666C1248.953,471.436,1225.86,484.053,1215.028,505.379C1204.999,525.125,1213.821,547.295,1224.643,566.618C1235.812,586.561,1250.081,606.895,1272.871,608.663" fill="rgba(245, 53, 255, 0.5)" class="triangle-float3"></path>
        <path d="M314.029,516.651C346.526,516.78,380.048,506.113,396.375,478.015C412.766,449.807,403.991,416.138,389.385,386.966C372.557,353.356,351.495,316.565,314.029,313.547C272.688,310.216,232.656,335.696,214.233,372.855C197.388,406.831,211.188,446.209,232.81,477.364C251.188,503.845,281.796,516.523,314.029,516.651" fill="rgba(245, 53, 255, 0.5)" class="triangle-float3"></path>
        <path d="M1196.48,486.79C1213.148,487.315,1227.766,475.818,1235.369,460.976C1242.355,447.338,1238.851,431.746,1231.585,418.255C1223.818,403.836,1212.858,388.745,1196.48,388.775C1180.133,388.805,1168.894,403.755,1161.595,418.382C1155.171,431.256,1155.076,445.836,1161.612,458.654C1168.884,472.914,1180.481,486.286,1196.48,486.79" fill="rgba(245, 53, 255, 0.5)" class="triangle-float1"></path>
        <path d="M1156.187,159.603C1175.95,160.668,1195.513,149.545,1204.036,131.682C1211.734,115.549,1202.644,97.835,1192.769,82.936C1184.193,69.997,1171.665,60.677,1156.187,59.49C1138.122,58.105,1117.583,60.848,1108.399,76.466C1099.136,92.217,1107.4,111.124,1116.506,126.966C1125.654,142.88,1137.858,158.615,1156.187,159.603" fill="rgba(245, 53, 255, 0.5)" class="triangle-float3"></path>
    </g>
    <defs>
        <mask id="SvgjsMask1016">
            <rect width="1440" height="560" fill="#ffffff"></rect>
        </mask>
        <style>
            @keyframes float1 {
                    0%{transform: translate(0, 0)}
                    50%{transform: translate(-10px, 0)}
                    100%{transform: translate(0, 0)}
                }

                .triangle-float1 {
                    animation: float1 5s infinite;
                }

                @keyframes float2 {
                    0%{transform: translate(0, 0)}
                    50%{transform: translate(-5px, -5px)}
                    100%{transform: translate(0, 0)}
                }

                .triangle-float2 {
                    animation: float2 4s infinite;
                }

                @keyframes float3 {
                    0%{transform: translate(0, 0)}
                    50%{transform: translate(0, -10px)}
                    100%{transform: translate(0, 0)}
                }

                .triangle-float3 {
                    animation: float3 6s infinite;
                }
        </style>
    </defs>
</svg>