<svg xmlns="http://www.w3.org/2000/svg" version="1.1" xmlns:xlink="http://www.w3.org/1999/xlink" xmlns:svgjs="http://svgjs.dev/svgjs" width="1440" height="560" preserveAspectRatio="none" viewBox="0 0 1440 560">
    <g mask="url(&quot;#SvgjsMask1015&quot;)" fill="none">
        <path d="M1429 435L1428 770" stroke-width="8" stroke="url(&quot;#SvgjsLinearGradient1016&quot;)" stroke-linecap="round" class="Down"></path>
        <path d="M634 502L633 125" stroke-width="10" stroke="url(&quot;#SvgjsLinearGradient1016&quot;)" stroke-linecap="round" class="Down"></path>
        <path d="M1082 373L1081 740" stroke-width="8" stroke="url(&quot;#SvgjsLinearGradient1017&quot;)" stroke-linecap="round" class="Up"></path>
        <path d="M169 236L168 -5" stroke-width="6" stroke="url(&quot;#SvgjsLinearGradient1016&quot;)" stroke-linecap="round" class="Down"></path>
        <path d="M84 79L83 -247" stroke-width="10" stroke="url(&quot;#SvgjsLinearGradient1017&quot;)" stroke-linecap="round" class="Up"></path>
        <path d="M951 216L950 -49" stroke-width="8" stroke="url(&quot;#SvgjsLinearGradient1016&quot;)" stroke-linecap="round" class="Down"></path>
        <path d="M59 141L58 358" stroke-width="10" stroke="url(&quot;#SvgjsLinearGradient1016&quot;)" stroke-linecap="round" class="Down"></path>
        <path d="M478 473L477 149" stroke-width="6" stroke="url(&quot;#SvgjsLinearGradient1016&quot;)" stroke-linecap="round" class="Down"></path>
        <path d="M811 523L810 357" stroke-width="10" stroke="url(&quot;#SvgjsLinearGradient1016&quot;)" stroke-linecap="round" class="Down"></path>
        <path d="M1362 75L1361 429" stroke-width="8" stroke="url(&quot;#SvgjsLinearGradient1017&quot;)" stroke-linecap="round" class="Up"></path>
        <path d="M196 174L195 327" stroke-width="6" stroke="url(&quot;#SvgjsLinearGradient1016&quot;)" stroke-linecap="round" class="Down"></path>
        <path d="M191 493L190 692" stroke-width="8" stroke="url(&quot;#SvgjsLinearGradient1016&quot;)" stroke-linecap="round" class="Down"></path>
        <path d="M716 201L715 8" stroke-width="10" stroke="url(&quot;#SvgjsLinearGradient1017&quot;)" stroke-linecap="round" class="Up"></path>
        <path d="M1277 299L1276 -21" stroke-width="10" stroke="url(&quot;#SvgjsLinearGradient1017&quot;)" stroke-linecap="round" class="Up"></path>
        <path d="M201 148L200 414" stroke-width="6" stroke="url(&quot;#SvgjsLinearGradient1016&quot;)" stroke-linecap="round" class="Down"></path>
        <path d="M975 127L974 275" stroke-width="10" stroke="url(&quot;#SvgjsLinearGradient1016&quot;)" stroke-linecap="round" class="Down"></path>
        <path d="M634 218L633 614" stroke-width="10" stroke="url(&quot;#SvgjsLinearGradient1016&quot;)" stroke-linecap="round" class="Down"></path>
        <path d="M646 560L645 850" stroke-width="6" stroke="url(&quot;#SvgjsLinearGradient1016&quot;)" stroke-linecap="round" class="Down"></path>
        <path d="M1045 246L1044 72" stroke-width="6" stroke="url(&quot;#SvgjsLinearGradient1016&quot;)" stroke-linecap="round" class="Down"></path>
        <path d="M1322 281L1321 604" stroke-width="6" stroke="url(&quot;#SvgjsLinearGradient1016&quot;)" stroke-linecap="round" class="Down"></path>
        <path d="M523 231L522 651" stroke-width="8" stroke="url(&quot;#SvgjsLinearGradient1017&quot;)" stroke-linecap="round" class="Up"></path>
        <path d="M707 288L706 -131" stroke-width="8" stroke="url(&quot;#SvgjsLinearGradient1016&quot;)" stroke-linecap="round" class="Down"></path>
        <path d="M1309 109L1308 258" stroke-width="8" stroke="url(&quot;#SvgjsLinearGradient1017&quot;)" stroke-linecap="round" class="Up"></path>
        <path d="M512 217L511 66" stroke-width="6" stroke="url(&quot;#SvgjsLinearGradient1016&quot;)" stroke-linecap="round" class="Down"></path>
        <path d="M133 285L132 652" stroke-width="8" stroke="url(&quot;#SvgjsLinearGradient1017&quot;)" stroke-linecap="round" class="Up"></path>
        <path d="M86 476L85 264" stroke-width="8" stroke="url(&quot;#SvgjsLinearGradient1017&quot;)" stroke-linecap="round" class="Up"></path>
        <path d="M785 348L784 680" stroke-width="8" stroke="url(&quot;#SvgjsLinearGradient1017&quot;)" stroke-linecap="round" class="Up"></path>
        <path d="M447 175L446 348" stroke-width="10" stroke="url(&quot;#SvgjsLinearGradient1016&quot;)" stroke-linecap="round" class="Down"></path>
        <path d="M1314 502L1313 707" stroke-width="10" stroke="url(&quot;#SvgjsLinearGradient1017&quot;)" stroke-linecap="round" class="Up"></path>
        <path d="M593 395L592 723" stroke-width="8" stroke="url(&quot;#SvgjsLinearGradient1017&quot;)" stroke-linecap="round" class="Up"></path>
        <path d="M642 108L641 -211" stroke-width="8" stroke="url(&quot;#SvgjsLinearGradient1016&quot;)" stroke-linecap="round" class="Down"></path>
        <path d="M521 323L520 84" stroke-width="6" stroke="url(&quot;#SvgjsLinearGradient1017&quot;)" stroke-linecap="round" class="Up"></path>
        <path d="M779 208L778 572" stroke-width="8" stroke="url(&quot;#SvgjsLinearGradient1016&quot;)" stroke-linecap="round" class="Down"></path>
        <path d="M437 323L436 -1" stroke-width="10" stroke="url(&quot;#SvgjsLinearGradient1017&quot;)" stroke-linecap="round" class="Up"></path>
        <path d="M294 58L293 -113" stroke-width="8" stroke="url(&quot;#SvgjsLinearGradient1017&quot;)" stroke-linecap="round" class="Up"></path>
        <path d="M185 40L184 -338" stroke-width="6" stroke="url(&quot;#SvgjsLinearGradient1016&quot;)" stroke-linecap="round" class="Down"></path>
    </g>
    <defs>
        <mask id="SvgjsMask1015">
            <rect width="1440" height="560" fill="#ffffff"></rect>
        </mask>
        <linearGradient x1="0%" y1="0%" x2="0%" y2="100%" id="SvgjsLinearGradient1016">
            <stop stop-color="rgba(28, 83, 142, 0)" offset="0"></stop>
            <stop stop-color="#d200da" offset="1"></stop>
        </linearGradient>
        <linearGradient x1="0%" y1="100%" x2="0%" y2="0%" id="SvgjsLinearGradient1017">
            <stop stop-color="rgba(28, 83, 142, 0)" offset="0"></stop>
            <stop stop-color="#d200da" offset="1"></stop>
        </linearGradient>
    </defs>
</svg>