<?xml version="1.0" encoding="UTF-8"?>
<svg id="Layer_2" data-name="Layer 2" xmlns="http://www.w3.org/2000/svg" viewBox="0 0 108.89 108.89">
  <defs>
    <style>
      .cls-1 {
        fill: #73b6ff;
        stroke-width: 0px;
      }
    </style>
  </defs>
  <g id="Layer_1-2" data-name="Layer 1">
    <g>
      <polygon class="cls-1" points="108.57 62.77 91.29 47.54 91.29 63.63 47.44 63.63 47.44 88.82 108.89 88.82 108.89 62.77 108.57 62.77"/>
      <polygon class="cls-1" points="63.63 61.45 88.82 61.45 88.82 0 62.77 0 62.77 .32 47.54 17.61 63.63 17.61 63.63 61.45"/>
      <polygon class="cls-1" points="61.45 20.07 0 20.07 0 46.13 .32 46.13 17.61 61.36 17.61 45.26 61.45 45.26 61.45 20.07"/>
      <polygon class="cls-1" points="45.26 47.44 20.07 47.44 20.07 108.89 46.13 108.89 46.13 108.57 61.36 91.29 45.26 91.29 45.26 47.44"/>
    </g>
  </g>
</svg>